<?xml version="1.0" encoding="UTF-8" standalone="no"?>
<!DOCTYPE svg PUBLIC "-//W3C//DTD SVG 1.1//EN"
 "http://www.w3.org/Graphics/SVG/1.1/DTD/svg11.dtd">
<!-- Generated by graphviz version 2.40.1 (20161225.0304)
 -->
<!-- Title: G Pages: 1 -->
<svg width="1676pt" height="602pt"
 viewBox="0.00 0.00 1676.00 602.00" xmlns="http://www.w3.org/2000/svg" xmlns:xlink="http://www.w3.org/1999/xlink">
<g id="graph0" class="graph" transform="scale(1 1) rotate(0) translate(4 598)">
<title>G</title>
<polygon fill="#ffffff" stroke="transparent" points="-4,4 -4,-598 1672,-598 1672,4 -4,4"/>
<!-- A0 -->
<g id="node1" class="node">
<title>A0</title>
<polygon fill="none" stroke="#000000" points="0,-415 0,-447 264,-447 264,-415 0,-415"/>
<text text-anchor="start" x="83.653" y="-428" font-family="Helvetica,sans-Serif" font-size="10.00" fill="#000000">ProyectoGobernacion</text>
<polygon fill="none" stroke="#000000" points="0,-395 0,-415 264,-415 264,-395 0,-395"/>
<polygon fill="none" stroke="#000000" points="0,-291 0,-395 264,-395 264,-291 0,-291"/>
<text text-anchor="start" x="24.0495" y="-376" font-family="Helvetica,sans-Serif" font-size="10.00" fill="#000000">+addParqueInfantil(parqueInfantil:ParqueInfantil)</text>
<text text-anchor="start" x="39.614" y="-364" font-family="Helvetica,sans-Serif" font-size="10.00" fill="#000000">+getParque(nombre:Texto):ParqueInfantil</text>
<text text-anchor="start" x="9.8945" y="-352" font-family="Helvetica,sans-Serif" font-size="10.00" fill="#000000">+getParquesMunicipio(municipio:Texto):ParqueInfantil*</text>
<text text-anchor="start" x="16.8275" y="-340" font-family="Helvetica,sans-Serif" font-size="10.00" fill="#000000">+getParquesOrdenValorAscendete():ParqueInfantil*</text>
<text text-anchor="start" x="77.135" y="-328" font-family="Helvetica,sans-Serif" font-size="10.00" fill="#000000">+calcularValorProyecto()</text>
<text text-anchor="start" x="121.722" y="-316" font-family="Helvetica,sans-Serif" font-size="10.00" fill="#000000">Real</text>
<text text-anchor="start" x="36.149" y="-304" font-family="Helvetica,sans-Serif" font-size="10.00" fill="#000000">&#45;existeParqueInfantil(nombre:Texto):Logico</text>
</g>
<!-- A3 -->
<g id="node4" class="node">
<title>A3</title>
<polygon fill="none" stroke="#000000" points="314.5,-427 314.5,-459 625.5,-459 625.5,-427 314.5,-427"/>
<text text-anchor="start" x="439.157" y="-440" font-family="Helvetica,sans-Serif" font-size="10.00" fill="#000000">ParqueInfantil</text>
<polygon fill="none" stroke="#000000" points="314.5,-383 314.5,-427 625.5,-427 625.5,-383 314.5,-383"/>
<text text-anchor="start" x="437.496" y="-408" font-family="Helvetica,sans-Serif" font-size="10.00" fill="#000000">&#45;nombre:Texto</text>
<text text-anchor="start" x="429.162" y="-396" font-family="Helvetica,sans-Serif" font-size="10.00" fill="#000000">&#45;descripcion:Texto</text>
<polygon fill="none" stroke="#000000" points="314.5,-279 314.5,-383 625.5,-383 625.5,-279 314.5,-279"/>
<text text-anchor="start" x="324.0125" y="-364" font-family="Helvetica,sans-Serif" font-size="10.00" fill="#000000">+Contructor(nombre:Texto,descripcion:Texto,municipio:Municipio)</text>
<text text-anchor="start" x="425.1335" y="-352" font-family="Helvetica,sans-Serif" font-size="10.00" fill="#000000">+getNombre():Texto</text>
<text text-anchor="start" x="416.7995" y="-340" font-family="Helvetica,sans-Serif" font-size="10.00" fill="#000000">+getDescripcion():Texto</text>
<text text-anchor="start" x="383.165" y="-328" font-family="Helvetica,sans-Serif" font-size="10.00" fill="#000000">+addZona(zonasParque:ZonasParque)</text>
<text text-anchor="start" x="423.1945" y="-316" font-family="Helvetica,sans-Serif" font-size="10.00" fill="#000000">+calcularValor():Real</text>
<text text-anchor="start" x="421.7995" y="-304" font-family="Helvetica,sans-Serif" font-size="10.00" fill="#000000">+getMunicipio():Texto</text>
<text text-anchor="start" x="377.482" y="-292" font-family="Helvetica,sans-Serif" font-size="10.00" fill="#000000">&#45;existeZonaParque(nombre:Texto):Logico</text>
</g>
<!-- A0&#45;&gt;A3 -->
<g id="edge1" class="edge">
<title>A0&#45;&gt;A3</title>
<path fill="none" stroke="#000000" d="M276.6871,-369C285.6495,-369 294.7043,-369 303.7476,-369"/>
<polygon fill="none" stroke="#000000" points="276.4203,-369.0001 270.4202,-373 264.4203,-369 270.4203,-365 276.4203,-369.0001"/>
<polygon fill="#000000" stroke="#000000" points="313.9474,-369 303.9474,-373.5001 308.9474,-369 303.9474,-369.0001 303.9474,-369.0001 303.9474,-369.0001 308.9474,-369 303.9473,-364.5001 313.9474,-369 313.9474,-369"/>
<text text-anchor="middle" x="295.8212" y="-374.4524" font-family="Helvetica,sans-Serif" font-size="10.00" fill="#000000">*</text>
<text text-anchor="middle" x="282.5464" y="-357.5476" font-family="Helvetica,sans-Serif" font-size="10.00" fill="#000000">1</text>
</g>
<!-- A1 -->
<g id="node2" class="node">
<title>A1</title>
<polygon fill="none" stroke="#000000" points="797.5,-550 797.5,-594 932.5,-594 932.5,-550 797.5,-550"/>
<text text-anchor="start" x="840.819" y="-575" font-family="Helvetica,sans-Serif" font-size="10.00" fill="#000000">&lt;&lt;enum&gt;&gt;</text>
<text text-anchor="start" x="843.889" y="-563" font-family="Helvetica,sans-Serif" font-size="10.00" fill="#000000">Municipio</text>
<polygon fill="none" stroke="#000000" points="797.5,-386 797.5,-550 932.5,-550 932.5,-386 797.5,-386"/>
<text text-anchor="start" x="831.946" y="-531" font-family="Helvetica,sans-Serif" font-size="10.00" fill="#000000">ARMENIA(0.0)</text>
<text text-anchor="start" x="819.993" y="-519" font-family="Helvetica,sans-Serif" font-size="10.00" fill="#000000">CALARCA(10000.0)</text>
<text text-anchor="start" x="807.2195" y="-507" font-family="Helvetica,sans-Serif" font-size="10.00" fill="#000000">MONTENEGRO(20000.0)</text>
<text text-anchor="start" x="817.2135" y="-495" font-family="Helvetica,sans-Serif" font-size="10.00" fill="#000000">QUIMBAYA(30000.0)</text>
<text text-anchor="start" x="822.213" y="-483" font-family="Helvetica,sans-Serif" font-size="10.00" fill="#000000">TEBAIDA(15000.0)</text>
<text text-anchor="start" x="819.9935" y="-471" font-family="Helvetica,sans-Serif" font-size="10.00" fill="#000000">CIRCASIA(18000.0)</text>
<text text-anchor="start" x="821.1035" y="-459" font-family="Helvetica,sans-Serif" font-size="10.00" fill="#000000">FILANDIA(22000.0)</text>
<text text-anchor="start" x="822.493" y="-447" font-family="Helvetica,sans-Serif" font-size="10.00" fill="#000000">GÉNOVA(70000.0)</text>
<text text-anchor="start" x="820.268" y="-435" font-family="Helvetica,sans-Serif" font-size="10.00" fill="#000000">SALENTO(50000.0)</text>
<text text-anchor="start" x="829.1565" y="-423" font-family="Helvetica,sans-Serif" font-size="10.00" fill="#000000">PIJAO(40000.0)</text>
<text text-anchor="start" x="818.328" y="-411" font-family="Helvetica,sans-Serif" font-size="10.00" fill="#000000">CORDOBA(30000.0)</text>
<text text-anchor="start" x="811.9345" y="-399" font-family="Helvetica,sans-Serif" font-size="10.00" fill="#000000">BUENAVISTA(35000.0)</text>
<polygon fill="none" stroke="#000000" points="797.5,-354 797.5,-386 932.5,-386 932.5,-354 797.5,-354"/>
<text text-anchor="start" x="814.8495" y="-367" font-family="Helvetica,sans-Serif" font-size="10.00" fill="#000000">+getSobrecosto():Real</text>
</g>
<!-- A2 -->
<g id="node3" class="node">
<title>A2</title>
<polygon fill="none" stroke="#000000" points="1104,-346 1104,-390 1266,-390 1266,-346 1104,-346"/>
<text text-anchor="start" x="1160.819" y="-371" font-family="Helvetica,sans-Serif" font-size="10.00" fill="#000000">&lt;&lt;enum&gt;&gt;</text>
<text text-anchor="start" x="1167.224" y="-359" font-family="Helvetica,sans-Serif" font-size="10.00" fill="#000000">Material</text>
<polygon fill="none" stroke="#000000" points="1104,-278 1104,-346 1266,-346 1266,-278 1104,-278"/>
<text text-anchor="start" x="1146.382" y="-327" font-family="Helvetica,sans-Serif" font-size="10.00" fill="#000000">ARENA(10000.0)</text>
<text text-anchor="start" x="1116.382" y="-315" font-family="Helvetica,sans-Serif" font-size="10.00" fill="#000000">GRAMA_SINTETICA(35000.0)</text>
<text text-anchor="start" x="1119.161" y="-303" font-family="Helvetica,sans-Serif" font-size="10.00" fill="#000000">GRAMA_NATURAL(20000.0)</text>
<text text-anchor="start" x="1140.823" y="-291" font-family="Helvetica,sans-Serif" font-size="10.00" fill="#000000">ASFALTO(40000.0)</text>
<polygon fill="none" stroke="#000000" points="1104,-246 1104,-278 1266,-278 1266,-246 1104,-246"/>
<text text-anchor="start" x="1113.7395" y="-259" font-family="Helvetica,sans-Serif" font-size="10.00" fill="#000000">+getValorMetroCuadrado():Real</text>
</g>
<!-- A3&#45;&gt;A1 -->
<g id="edge2" class="edge">
<title>A3&#45;&gt;A1</title>
<path fill="none" stroke="#000000" d="M625.0474,-410.3481C680.56,-425.1046 740.7084,-441.0934 786.8352,-453.3549"/>
<polygon fill="#000000" stroke="#000000" points="796.755,-455.9918 785.9345,-457.7717 791.9228,-454.7073 787.0906,-453.4227 787.0906,-453.4227 787.0906,-453.4227 791.9228,-454.7073 788.2467,-449.0738 796.755,-455.9918 796.755,-455.9918"/>
<text text-anchor="middle" x="777.0658" y="-456.5039" font-family="Helvetica,sans-Serif" font-size="10.00" fill="#000000">1</text>
<text text-anchor="middle" x="644.7367" y="-403.836" font-family="Helvetica,sans-Serif" font-size="10.00" fill="#000000">*</text>
</g>
<!-- A4 -->
<g id="node5" class="node">
<title>A4</title>
<polygon fill="none" stroke="#000000" points="675.5,-304 675.5,-336 1054.5,-336 1054.5,-304 675.5,-304"/>
<text text-anchor="start" x="834.99" y="-317" font-family="Helvetica,sans-Serif" font-size="10.00" fill="#000000">ZonasParque</text>
<polygon fill="none" stroke="#000000" points="675.5,-272 675.5,-304 1054.5,-304 1054.5,-272 675.5,-272"/>
<text text-anchor="start" x="832.496" y="-285" font-family="Helvetica,sans-Serif" font-size="10.00" fill="#000000">&#45;nombre:Texto</text>
<polygon fill="none" stroke="#000000" points="675.5,-192 675.5,-272 1054.5,-272 1054.5,-192 675.5,-192"/>
<text text-anchor="start" x="685.1265" y="-253" font-family="Helvetica,sans-Serif" font-size="10.00" fill="#000000">+Contructor(nombre:Texto,figuraGeometrica:FiguraGeometrica,material:Material)</text>
<text text-anchor="start" x="820.1335" y="-241" font-family="Helvetica,sans-Serif" font-size="10.00" fill="#000000">+getNombre():Texto</text>
<text text-anchor="start" x="818.1945" y="-229" font-family="Helvetica,sans-Serif" font-size="10.00" fill="#000000">+calcularValor():Real</text>
<text text-anchor="start" x="814.8615" y="-217" font-family="Helvetica,sans-Serif" font-size="10.00" fill="#000000">+getMaterial():Material</text>
<text text-anchor="start" x="784.5755" y="-205" font-family="Helvetica,sans-Serif" font-size="10.00" fill="#000000">+getFormaZona():FiguraGeometrica</text>
</g>
<!-- A3&#45;&gt;A4 -->
<g id="edge3" class="edge">
<title>A3&#45;&gt;A4</title>
<path fill="none" stroke="#000000" d="M636.9538,-324.487C646.2148,-322.0252 655.5659,-319.5394 664.9233,-317.052"/>
<polygon fill="none" stroke="#000000" points="636.6447,-324.5691 631.8737,-329.9763 625.0474,-327.6519 629.8184,-322.2447 636.6447,-324.5691"/>
<polygon fill="#000000" stroke="#000000" points="674.6734,-314.4602 666.1651,-321.3783 669.8412,-315.7448 665.009,-317.0293 665.009,-317.0293 665.009,-317.0293 669.8412,-315.7448 663.8529,-312.6804 674.6734,-314.4602 674.6734,-314.4602"/>
<text text-anchor="middle" x="659.327" y="-324.2856" font-family="Helvetica,sans-Serif" font-size="10.00" fill="#000000">*</text>
<text text-anchor="middle" x="640.3938" y="-311.8266" font-family="Helvetica,sans-Serif" font-size="10.00" fill="#000000">1</text>
</g>
<!-- A4&#45;&gt;A2 -->
<g id="edge5" class="edge">
<title>A4&#45;&gt;A2</title>
<path fill="none" stroke="#000000" d="M1054.1781,-295.9582C1067.8293,-298.2583 1081.1854,-300.5086 1093.8317,-302.6393"/>
<polygon fill="#000000" stroke="#000000" points="1103.8136,-304.3212 1093.2049,-307.0971 1098.8831,-303.4904 1093.9526,-302.6596 1093.9526,-302.6596 1093.9526,-302.6596 1098.8831,-303.4904 1094.7003,-298.2222 1103.8136,-304.3212 1103.8136,-304.3212"/>
<text text-anchor="middle" x="1084.5351" y="-306.6445" font-family="Helvetica,sans-Serif" font-size="10.00" fill="#000000">1</text>
<text text-anchor="middle" x="1073.4567" y="-287.6349" font-family="Helvetica,sans-Serif" font-size="10.00" fill="#000000">*</text>
</g>
<!-- A10 -->
<g id="node11" class="node">
<title>A10</title>
<polygon fill="none" stroke="#000000" points="1239.005,-228 1130.995,-228 1130.995,-192 1239.005,-192 1239.005,-228"/>
<text text-anchor="middle" x="1185" y="-213" font-family="Helvetica,sans-Serif" font-size="10.00" fill="#000000">&lt;&lt;abstract&gt;&gt;</text>
<text text-anchor="middle" x="1185" y="-201" font-family="Helvetica,sans-Serif" font-size="10.00" fill="#000000">FiguraGeometrica</text>
</g>
<!-- A4&#45;&gt;A10 -->
<g id="edge4" class="edge">
<title>A4&#45;&gt;A10</title>
<path fill="none" stroke="#000000" d="M1054.1781,-232.0418C1078.0033,-228.0275 1100.9297,-224.1647 1120.7522,-220.8249"/>
<polygon fill="#000000" stroke="#000000" points="1130.8235,-219.128 1121.7102,-225.227 1125.893,-219.9588 1120.9625,-220.7896 1120.9625,-220.7896 1120.9625,-220.7896 1125.893,-219.9588 1120.2148,-216.3521 1130.8235,-219.128 1130.8235,-219.128"/>
<text text-anchor="middle" x="1114.3536" y="-227.4745" font-family="Helvetica,sans-Serif" font-size="10.00" fill="#000000">1</text>
<text text-anchor="middle" x="1070.648" y="-217.6953" font-family="Helvetica,sans-Serif" font-size="10.00" fill="#000000">*</text>
</g>
<!-- A5 -->
<g id="node6" class="node">
<title>A5</title>
<polygon fill="none" stroke="#000000" points="77,-497 77,-541 188,-541 188,-497 77,-497"/>
<text text-anchor="start" x="101.371" y="-522" font-family="Helvetica,sans-Serif" font-size="10.00" fill="#000000">&lt;&lt;Interface&gt;&gt;</text>
<text text-anchor="start" x="92.4975" y="-510" font-family="Helvetica,sans-Serif" font-size="10.00" fill="#000000">FiguraGeometrica</text>
<polygon fill="none" stroke="#000000" points="77,-465 77,-497 188,-497 188,-465 77,-465"/>
<text text-anchor="start" x="86.804" y="-478" font-family="Helvetica,sans-Serif" font-size="10.00" fill="#000000">+calcularArea():Real</text>
</g>
<!-- A6 -->
<g id="node7" class="node">
<title>A6</title>
<polygon fill="none" stroke="#000000" points="1340,-364 1340,-396 1469,-396 1469,-364 1340,-364"/>
<text text-anchor="start" x="1388.948" y="-377" font-family="Helvetica,sans-Serif" font-size="10.00" fill="#000000">Circulo</text>
<polygon fill="none" stroke="#000000" points="1340,-332 1340,-364 1469,-364 1469,-332 1340,-332"/>
<text text-anchor="start" x="1380.0555" y="-345" font-family="Helvetica,sans-Serif" font-size="10.00" fill="#000000">&#45;radio:Real</text>
<polygon fill="none" stroke="#000000" points="1340,-288 1340,-332 1469,-332 1469,-288 1340,-288"/>
<text text-anchor="start" x="1349.636" y="-313" font-family="Helvetica,sans-Serif" font-size="10.00" fill="#000000">+Constructor(radio:Real)</text>
<text text-anchor="start" x="1358.804" y="-301" font-family="Helvetica,sans-Serif" font-size="10.00" fill="#000000">+calcularArea():Real</text>
</g>
<!-- A7 -->
<g id="node8" class="node">
<title>A7</title>
<polygon fill="none" stroke="#000000" points="1316,-238 1316,-270 1492,-270 1492,-238 1316,-238"/>
<text text-anchor="start" x="1378.7145" y="-251" font-family="Helvetica,sans-Serif" font-size="10.00" fill="#000000">Rectangulo</text>
<polygon fill="none" stroke="#000000" points="1316,-194 1316,-238 1492,-238 1492,-194 1316,-194"/>
<text text-anchor="start" x="1377.05" y="-219" font-family="Helvetica,sans-Serif" font-size="10.00" fill="#000000">&#45;ancho:Real</text>
<text text-anchor="start" x="1384.2745" y="-207" font-family="Helvetica,sans-Serif" font-size="10.00" fill="#000000">alto:Real</text>
<polygon fill="none" stroke="#000000" points="1316,-150 1316,-194 1492,-194 1492,-150 1316,-150"/>
<text text-anchor="start" x="1325.5155" y="-175" font-family="Helvetica,sans-Serif" font-size="10.00" fill="#000000">+Constructor(ancho:Real,alto:Real)</text>
<text text-anchor="start" x="1358.304" y="-163" font-family="Helvetica,sans-Serif" font-size="10.00" fill="#000000">+calcularArea():Real</text>
</g>
<!-- A9 -->
<g id="node10" class="node">
<title>A9</title>
<polygon fill="none" stroke="#000000" points="1542,-220 1542,-252 1668,-252 1668,-220 1542,-220"/>
<text text-anchor="start" x="1583.049" y="-233" font-family="Helvetica,sans-Serif" font-size="10.00" fill="#000000">Cuadrado</text>
<polygon fill="none" stroke="#000000" points="1542,-200 1542,-220 1668,-220 1668,-200 1542,-200"/>
<polygon fill="none" stroke="#000000" points="1542,-168 1542,-200 1668,-200 1668,-168 1542,-168"/>
<text text-anchor="start" x="1551.8005" y="-181" font-family="Helvetica,sans-Serif" font-size="10.00" fill="#000000">+Constructor(lado:Real)</text>
</g>
<!-- A7&#45;&gt;A9 -->
<g id="edge9" class="edge">
<title>A7&#45;&gt;A9</title>
<path fill="none" stroke="#000000" d="M1502.4233,-210C1515.876,-210 1529.3784,-210 1541.9657,-210"/>
<polygon fill="none" stroke="#000000" points="1502.1616,-206.5001 1492.1615,-210 1502.1615,-213.5001 1502.1616,-206.5001"/>
</g>
<!-- A8 -->
<g id="node9" class="node">
<title>A8</title>
<polygon fill="none" stroke="#000000" points="1342,-100 1342,-132 1467,-132 1467,-100 1342,-100"/>
<text text-anchor="start" x="1358.379" y="-113" font-family="Helvetica,sans-Serif" font-size="10.00" fill="#000000">TrianguloRectangulo</text>
<polygon fill="none" stroke="#000000" points="1342,-56 1342,-100 1467,-100 1467,-56 1342,-56"/>
<text text-anchor="start" x="1380.3295" y="-81" font-family="Helvetica,sans-Serif" font-size="10.00" fill="#000000">&#45;base:Real</text>
<text text-anchor="start" x="1378.666" y="-69" font-family="Helvetica,sans-Serif" font-size="10.00" fill="#000000">&#45;altura:Real</text>
<polygon fill="none" stroke="#000000" points="1342,0 1342,-56 1467,-56 1467,0 1342,0"/>
<text text-anchor="start" x="1351.5745" y="-37" font-family="Helvetica,sans-Serif" font-size="10.00" fill="#000000">+Constructor(base:Real</text>
<text text-anchor="start" x="1378.666" y="-25" font-family="Helvetica,sans-Serif" font-size="10.00" fill="#000000">altura:Real)</text>
<text text-anchor="start" x="1358.804" y="-13" font-family="Helvetica,sans-Serif" font-size="10.00" fill="#000000">+calcularArea():Real</text>
</g>
<!-- A10&#45;&gt;A6 -->
<g id="edge6" class="edge">
<title>A10&#45;&gt;A6</title>
<path fill="none" stroke="#000000" d="M1248.7854,-228.6845C1254.7367,-231.1901 1260.5671,-233.9596 1266,-237 1291.3258,-251.173 1293.0728,-261.2064 1316,-279 1323.4218,-284.76 1331.3013,-290.6732 1339.1768,-296.4601"/>
<polygon fill="none" stroke="#000000" points="1249.96,-225.3853 1239.3736,-224.9631 1247.3861,-231.8949 1249.96,-225.3853"/>
</g>
<!-- A10&#45;&gt;A7 -->
<g id="edge7" class="edge">
<title>A10&#45;&gt;A7</title>
<path fill="none" stroke="#000000" d="M1249.163,-210C1270.0638,-210 1293.6408,-210 1315.9769,-210"/>
<polygon fill="none" stroke="#000000" points="1249.1349,-206.5001 1239.1348,-210 1249.1348,-213.5001 1249.1349,-206.5001"/>
</g>
<!-- A10&#45;&gt;A8 -->
<g id="edge8" class="edge">
<title>A10&#45;&gt;A8</title>
<path fill="none" stroke="#000000" d="M1221.4772,-186.015C1254.0293,-164.6109 1302.4024,-132.8039 1341.1724,-107.3113"/>
<polygon fill="none" stroke="#000000" points="1219.1691,-183.3437 1212.7365,-191.7623 1223.015,-189.1926 1219.1691,-183.3437"/>
</g>
</g>
</svg>
